<svg width="380" height="132" viewBox="0 0 380 132" fill="none" xmlns="http://www.w3.org/2000/svg">
<g clip-path="url(#clip0_1_2)">
<path d="M155.44 98.75C154.55 98.75 154.11 99.19 154.11 100.06V106.11H146.97C144.64 106.11 142.91 106.67 141.78 107.78C140.67 108.89 140.11 110.62 140.11 112.95V117.04C140.11 119.37 140.67 121.1 141.78 122.23C142.9 123.34 144.63 123.9 146.97 123.9H148.33C149.77 123.9 150.95 123.73 151.88 123.4C152.81 123.05 153.56 122.55 154.11 121.89V122.57C154.11 123.46 154.55 123.9 155.44 123.9C156.33 123.9 156.75 123.46 156.75 122.57V100.07C156.75 99.2 156.31 98.76 155.44 98.76V98.75ZM154.11 118.42C154.11 119.38 153.57 120.09 152.48 120.56C151.39 121.03 150.01 121.26 148.33 121.26H146.97C145.37 121.26 144.26 120.96 143.65 120.36C143.05 119.76 142.75 118.66 142.75 117.04V112.95C142.75 111.36 143.05 110.26 143.65 109.67C144.25 109.06 145.35 108.76 146.97 108.76H154.11V118.43V118.42Z" fill="#0030CF"/>
<path d="M174.76 107.78C173.65 106.67 171.92 106.11 169.59 106.11H166.65C164.32 106.1 162.59 106.65 161.46 107.76C160.35 108.86 159.79 110.59 159.79 112.95V117.08C159.79 119.4 160.35 121.12 161.46 122.23C162.58 123.34 164.31 123.9 166.65 123.9H169.59C171.92 123.9 173.65 123.34 174.76 122.23C175.87 121.11 176.43 119.38 176.43 117.04V112.95C176.43 110.62 175.87 108.89 174.76 107.78ZM173.79 117.04C173.79 118.66 173.49 119.76 172.89 120.36C172.3 120.96 171.2 121.26 169.59 121.26H166.65C165.03 121.26 163.93 120.96 163.33 120.36C162.73 119.76 162.43 118.67 162.43 117.08V112.95C162.43 111.87 162.56 111.03 162.81 110.42C163.07 109.81 163.51 109.38 164.12 109.13C164.73 108.88 165.57 108.75 166.65 108.75H169.59C171.21 108.75 172.31 109.05 172.89 109.65C173.49 110.24 173.79 111.34 173.79 112.95V117.04Z" fill="#0030CF"/>
<path d="M185.73 123.89C183.4 123.89 181.67 123.33 180.54 122.22C179.43 121.1 178.87 119.37 178.87 117.03V112.9C178.87 110.57 179.42 108.84 180.52 107.73C181.63 106.62 183.37 106.07 185.72 106.1H188.66C190.43 106.1 191.81 106.4 192.8 107C193.79 107.6 194.42 108.52 194.67 109.76C194.75 110.2 194.67 110.54 194.42 110.78C194.18 111.02 193.83 111.14 193.38 111.14C192.97 111.14 192.67 111.04 192.48 110.83C192.29 110.61 192.12 110.32 191.98 109.93C191.81 109.49 191.47 109.18 190.96 109C190.46 108.82 189.69 108.73 188.66 108.73H185.72C184.12 108.71 183.01 108.99 182.4 109.59C181.8 110.18 181.5 111.28 181.5 112.89V117.02C181.5 118.64 181.8 119.74 182.4 120.34C183.01 120.94 184.12 121.24 185.72 121.24H188.66C189.69 121.24 190.45 121.15 190.96 120.97C191.47 120.79 191.82 120.47 191.98 120.02C192.12 119.63 192.29 119.33 192.48 119.12C192.67 118.92 192.98 118.82 193.4 118.82C193.84 118.82 194.18 118.95 194.42 119.2C194.67 119.44 194.76 119.77 194.67 120.2C194.42 121.44 193.8 122.37 192.8 122.98C191.81 123.58 190.43 123.88 188.66 123.88H185.72L185.73 123.89Z" fill="#0030CF"/>
<path d="M213.05 107.78C211.94 106.67 210.21 106.11 207.88 106.11H206.52C205.2 106.11 204.06 106.29 203.09 106.65C202.12 107.01 201.33 107.55 200.72 108.27V107.43C200.72 106.56 200.28 106.12 199.41 106.12C198.54 106.12 198.08 106.56 198.08 107.43V129.75C198.08 130.64 198.52 131.08 199.41 131.08C200.3 131.08 200.72 130.64 200.72 129.75V123.9H207.88C210.21 123.9 211.94 123.34 213.05 122.23C214.16 121.11 214.72 119.38 214.72 117.04V112.95C214.72 110.62 214.16 108.89 213.05 107.78ZM212.08 117.04C212.08 118.66 211.78 119.76 211.18 120.36C210.59 120.96 209.49 121.26 207.88 121.26H200.72V111.46C200.82 110.53 201.4 109.84 202.46 109.41C203.52 108.97 204.88 108.75 206.52 108.75H207.88C209.5 108.75 210.6 109.05 211.18 109.65C211.78 110.24 212.08 111.34 212.08 112.95V117.04Z" fill="#0030CF"/>
<path d="M219.9 123.89C219.01 123.89 218.57 123.45 218.57 122.56V107.41C218.57 106.54 219.01 106.1 219.9 106.1C220.79 106.1 221.21 106.54 221.21 107.41V109.28C221.89 108.24 222.79 107.45 223.9 106.91C225.02 106.37 226.33 106.1 227.81 106.1C228.7 106.1 229.14 106.54 229.14 107.41C229.14 108.28 228.7 108.74 227.81 108.74C225.72 108.74 224.11 109.16 223 110C221.89 110.83 221.29 111.96 221.21 113.39V122.56C221.21 123.45 220.77 123.89 219.9 123.89Z" fill="#0030CF"/>
<path d="M246.04 107.78C244.93 106.67 243.2 106.11 240.87 106.11H237.93C235.6 106.1 233.87 106.65 232.74 107.76C231.63 108.86 231.07 110.59 231.07 112.95V117.08C231.07 119.4 231.63 121.12 232.74 122.23C233.86 123.34 235.59 123.9 237.93 123.9H240.87C243.2 123.9 244.93 123.34 246.04 122.23C247.15 121.11 247.71 119.38 247.71 117.04V112.95C247.71 110.62 247.15 108.89 246.04 107.78ZM245.07 117.04C245.07 118.66 244.77 119.76 244.17 120.36C243.58 120.96 242.48 121.26 240.87 121.26H237.93C236.31 121.26 235.21 120.96 234.61 120.36C234.01 119.76 233.71 118.67 233.71 117.08V112.95C233.71 111.87 233.84 111.03 234.09 110.42C234.35 109.81 234.79 109.38 235.4 109.13C236.01 108.88 236.85 108.75 237.93 108.75H240.87C242.49 108.75 243.59 109.05 244.17 109.65C244.77 110.24 245.07 111.34 245.07 112.95V117.04Z" fill="#0030CF"/>
<path d="M264.71 107.78C263.6 106.67 261.87 106.11 259.54 106.11H256.6C254.27 106.1 252.54 106.65 251.41 107.76C250.3 108.86 249.74 110.59 249.74 112.95V117.08C249.74 119.4 250.3 121.12 251.41 122.23C252.53 123.34 254.26 123.9 256.6 123.9H259.54C261.87 123.9 263.6 123.34 264.71 122.23C265.82 121.11 266.38 119.38 266.38 117.04V112.95C266.38 110.62 265.82 108.89 264.71 107.78ZM263.74 117.04C263.74 118.66 263.44 119.76 262.84 120.36C262.25 120.96 261.15 121.26 259.54 121.26H256.6C254.98 121.26 253.88 120.96 253.28 120.36C252.68 119.76 252.38 118.67 252.38 117.08V112.95C252.38 111.87 252.51 111.03 252.76 110.42C253.02 109.81 253.46 109.38 254.07 109.13C254.68 108.88 255.52 108.75 256.6 108.75H259.54C261.16 108.75 262.26 109.05 262.84 109.65C263.44 110.24 263.74 111.34 263.74 112.95V117.04Z" fill="#0030CF"/>
<path d="M273.46 123.89C272.57 123.89 272.13 123.45 272.13 122.56V108.74H270.75C269.87 108.74 269.42 108.3 269.42 107.41C269.42 106.52 269.86 106.1 270.75 106.1H272.13V105.47C272.13 103.17 272.68 101.48 273.78 100.39C274.88 99.29 276.58 98.74 278.88 98.74C279.66 98.74 280.05 99.18 280.05 100.05C280.05 100.92 279.66 101.38 278.88 101.38C277.31 101.38 276.24 101.67 275.65 102.24C275.06 102.81 274.77 103.89 274.77 105.47V106.1H278.72C279.61 106.1 280.05 106.54 280.05 107.41C280.05 108.28 279.61 108.74 278.72 108.74H274.77V122.56C274.77 123.45 274.33 123.89 273.46 123.89Z" fill="#0030CF"/>
<path fill-rule="evenodd" clip-rule="evenodd" d="M272.54 84.49H285.09L290.48 68.19L278.09 69.26L272.54 84.49ZM296.26 58.16L295.03 54.44L293.71 58.43L281.57 59.71L288.2 41.52H301.97L317.57 84.49H304.96L299.32 67.42H299.37L296.28 58.16H296.26ZM161.36 72.42L161.32 72.36L154.19 84.49H140.6L154.55 62.49L140.11 41.52H154.19L162.29 53.34L169.24 41.52H182.83L169.06 63.16L174.45 71L161.38 72.38L161.35 72.43L161.36 72.42ZM165.85 78.95L169.66 84.49H183.74L179.13 77.8L165.84 78.95H165.85ZM187.62 77.07L184.91 84.49H197.46L200.28 75.97L187.62 77.06V77.07ZM211.58 67.08L207.4 54.44L202.92 67.99L190.45 69.3L200.58 41.51H214.35L223.19 65.85L211.59 67.07L211.58 67.08ZM214.12 74.78L217.33 84.49H229.94L226.04 73.75L214.12 74.78ZM232.01 73.23V84.49H243.95V72.2L232.01 73.23ZM243.96 72.2L258.52 70.96V84.49H270.46V41.52H258.52V62.11L243.96 63.62V41.52H232.02V64.93L243.97 63.67V72.2H243.96ZM328.29 54.81V41.52H316.41V56.05L328.29 54.81ZM328.29 64.95V66.45C328.29 68.77 328.82 70.55 329.87 71.81C330.97 73.07 332.61 73.7 334.81 73.7C337.01 73.7 338.65 73.07 339.75 71.81C340.89 70.51 341.46 68.72 341.46 66.45V63.83L353.4 62.81V66.45C353.4 70.39 352.57 73.76 350.9 76.57C349.23 79.33 346.96 81.43 344.07 82.85C341.23 84.23 338.06 84.92 334.56 84.92C331.06 84.92 327.94 84.23 325.18 82.85C322.46 81.43 320.31 79.34 318.72 76.57C317.18 73.81 316.4 70.43 316.4 66.45V65.96L328.28 64.95H328.29ZM353.4 52.18L341.46 53.43V41.52H353.4V52.18Z" fill="#0D0143"/>
<path d="M378.99 53.99C379.87 54.39 379.97 55.56 379.17 56.1L366.83 64.44C366.03 64.98 364.94 64.48 364.86 63.54L363.6 48.99C363.52 48.05 364.51 47.38 365.39 47.78L378.99 53.99Z" fill="#0D0143"/>
<path d="M2.22 66.2L79.55 58.05L94.74 42.86C92.54 41.21 89.84 40.17 86.91 40.05V36.74C86.91 16.48 70.43 0 50.17 0C29.91 0 13.44 16.48 13.44 36.74V40.05C5.97 40.37 0 46.51 0 54.06V64.21C0 65.4 1.03 66.33 2.22 66.21V66.2ZM23.38 36.74C23.38 21.97 35.4 9.95 50.17 9.95C64.94 9.95 76.96 21.97 76.96 36.74V40.02H23.38V36.74ZM33.53 73.19L24.2 82.52L36.01 94.33L8.05 97.28C6.86 97.4 5.83 96.48 5.83 95.28V71.46C5.83 70.43 6.61 69.57 7.63 69.46L75.25 62.33L48.97 88.61L33.53 73.17V73.19ZM100.34 93.63V110.3C100.34 118.05 94.06 124.34 86.3 124.34H14.04C6.29 124.34 0 118.06 0 110.3V103.78C0 102.75 0.78 101.89 1.8 101.78L39.49 97.81L46.62 104.94L48.97 107.29L60.69 95.57L98.13 91.62C99.32 91.5 100.35 92.42 100.35 93.62L100.34 93.63ZM106.18 61.32V85.14C106.18 86.17 105.4 87.03 104.38 87.14L64.97 91.29L96.1 60.16L103.95 59.33C105.14 59.21 106.17 60.13 106.17 61.33L106.18 61.32Z" fill="#0030CF"/>
</g>
<defs>
<clipPath id="clip0_1_2">
<rect width="380" height="132" fill="white"/>
</clipPath>
</defs>
</svg>
