<svg width="512" height="512" viewBox="0 0 512 512" fill="none" xmlns="http://www.w3.org/2000/svg">
<rect width="512" height="512" fill="url(#paint0_linear_1_44)"/>
<path d="M135.269 248.061L318.798 228.725L354.849 192.687C349.628 188.772 343.22 186.304 336.266 186.02V178.167C336.266 130.099 297.154 91 249.07 91C200.986 91 161.898 130.099 161.898 178.167V186.02C144.169 186.779 130 201.346 130 219.259V243.34C130 246.163 132.445 248.37 135.269 248.085V248.061ZM185.488 178.167C185.488 143.124 214.016 114.607 249.07 114.607C284.124 114.607 312.651 143.124 312.651 178.167V185.949H185.488V178.167ZM209.578 264.645L187.435 286.781L215.464 314.8L149.105 321.799C146.281 322.084 143.837 319.901 143.837 317.054V260.541C143.837 258.097 145.688 256.057 148.108 255.796L308.593 238.88L246.222 301.23L209.578 264.598V264.645ZM368.14 313.14V352.69C368.14 371.077 353.235 386 334.818 386H163.322C144.928 386 130 371.101 130 352.69V337.221C130 334.777 131.851 332.737 134.272 332.476L223.723 323.057L240.645 339.973L246.222 345.548L274.037 317.742L362.895 308.371C365.719 308.086 368.163 310.269 368.163 313.116L368.14 313.14ZM382 236.483V292.997C382 295.441 380.149 297.481 377.728 297.742L284.195 307.588L358.077 233.731L376.707 231.762C379.532 231.477 381.976 233.66 381.976 236.507L382 236.483Z" fill="white"/>
<defs>
<linearGradient id="paint0_linear_1_44" x1="74.5" y1="2.23285e-07" x2="409.5" y2="512" gradientUnits="userSpaceOnUse">
<stop stop-color="#0030CF"/>
<stop offset="1" stop-color="#001869"/>
</linearGradient>
</defs>
</svg>
