<svg width="500" height="500" viewBox="0 0 500 500" fill="none" xmlns="http://www.w3.org/2000/svg">
<rect x="121" y="160" width="240" height="57" fill="white"/>
<rect x="121" y="315" width="239" height="58" fill="white"/>
<path fill-rule="evenodd" clip-rule="evenodd" d="M238.357 72.6143C189.265 72.6143 149.468 112.411 149.468 161.503H184.036C184.036 131.503 208.356 107.182 238.357 107.182H240.003C270.004 107.182 294.324 131.503 294.324 161.503H330.538C330.538 112.411 290.741 72.6143 241.649 72.6143H238.357Z" fill="white"/>
<path fill-rule="evenodd" clip-rule="evenodd" d="M379 238H140V296H379V238ZM364.226 245.132C367.687 248.18 367.945 253.37 364.8 256.725L336.128 287.312C334.547 288.999 332.312 289.973 329.961 289.999C327.609 290.026 325.352 289.104 323.73 287.453L308.336 271.786C305.111 268.505 305.242 263.31 308.628 260.184C312.014 257.059 317.373 257.185 320.598 260.467L329.715 269.746L352.267 245.688C355.41 242.334 360.766 242.085 364.226 245.132Z" fill="white"/>
<path d="M131.905 428C128.33 428 125.681 427.147 123.958 425.442C122.253 423.719 121.4 421.07 121.4 417.495V411.225C121.4 407.65 122.253 405.01 123.958 403.305C125.681 401.6 128.33 400.747 131.905 400.747H142.85V391.48C142.85 390.142 143.528 389.472 144.885 389.472C146.223 389.472 146.893 390.142 146.893 391.48V425.965C146.893 427.322 146.223 428 144.885 428C143.528 428 142.85 427.322 142.85 425.965V424.92C142.007 425.928 140.87 426.698 139.44 427.23C138.01 427.743 136.195 428 133.995 428H131.905ZM131.905 423.958H133.995C136.562 423.958 138.679 423.6 140.348 422.885C142.016 422.17 142.85 421.079 142.85 419.612V404.79H131.905C129.43 404.79 127.734 405.257 126.818 406.192C125.901 407.109 125.443 408.787 125.443 411.225V417.495C125.443 419.97 125.901 421.666 126.818 422.582C127.753 423.499 129.448 423.958 131.905 423.958ZM169.017 428C165.442 428 162.793 427.147 161.07 425.442C159.365 423.737 158.512 421.107 158.512 417.55V411.225C158.512 407.613 159.365 404.964 161.07 403.277C162.793 401.572 165.442 400.729 169.017 400.747H173.527C177.102 400.747 179.742 401.6 181.447 403.305C183.152 405.01 184.005 407.65 184.005 411.225V417.495C184.005 421.07 183.152 423.719 181.447 425.442C179.742 427.147 177.102 428 173.527 428H169.017ZM162.555 417.55C162.555 419.988 163.013 421.666 163.93 422.582C164.846 423.499 166.542 423.958 169.017 423.958H173.527C176.002 423.958 177.689 423.499 178.587 422.582C179.504 421.666 179.962 419.97 179.962 417.495V411.225C179.962 408.75 179.504 407.063 178.587 406.165C177.689 405.248 176.002 404.79 173.527 404.79H169.017C167.367 404.79 166.075 404.982 165.14 405.367C164.205 405.752 163.535 406.412 163.132 407.347C162.747 408.282 162.555 409.575 162.555 411.225V417.55ZM205.485 428C201.91 428 199.261 427.147 197.537 425.442C195.832 423.719 194.98 421.07 194.98 417.495V411.17C194.98 407.595 195.823 404.955 197.51 403.25C199.215 401.545 201.873 400.711 205.485 400.747H209.995C212.708 400.747 214.826 401.206 216.347 402.122C217.869 403.039 218.822 404.451 219.207 406.357C219.336 407.036 219.207 407.558 218.822 407.925C218.456 408.292 217.924 408.475 217.227 408.475C216.604 408.475 216.146 408.319 215.852 408.007C215.559 407.677 215.302 407.219 215.082 406.632C214.826 405.954 214.303 405.477 213.515 405.202C212.745 404.927 211.571 404.79 209.995 404.79H205.485C203.028 404.753 201.332 405.193 200.397 406.11C199.481 407.008 199.022 408.695 199.022 411.17V417.495C199.022 419.97 199.481 421.666 200.397 422.582C201.332 423.499 203.028 423.958 205.485 423.958H209.995C211.571 423.958 212.745 423.82 213.515 423.545C214.303 423.27 214.826 422.784 215.082 422.087C215.302 421.482 215.559 421.024 215.852 420.712C216.146 420.401 216.613 420.245 217.255 420.245C217.933 420.245 218.456 420.437 218.822 420.822C219.207 421.189 219.336 421.702 219.207 422.362C218.822 424.269 217.869 425.69 216.347 426.625C214.826 427.542 212.708 428 209.995 428H205.485ZM232.837 439C231.481 439 230.802 438.322 230.802 436.965V402.755C230.802 401.417 231.481 400.747 232.837 400.747C234.176 400.747 234.845 401.417 234.845 402.755V404.047C235.78 402.947 236.99 402.122 238.475 401.572C239.96 401.022 241.711 400.747 243.727 400.747H245.817C249.392 400.747 252.032 401.6 253.737 403.305C255.442 405.01 256.295 407.65 256.295 411.225V417.495C256.295 421.07 255.442 423.719 253.737 425.442C252.032 427.147 249.392 428 245.817 428H234.845V436.965C234.845 438.322 234.176 439 232.837 439ZM234.845 423.958H245.817C248.292 423.958 249.979 423.499 250.877 422.582C251.794 421.666 252.252 419.97 252.252 417.495V411.225C252.252 408.75 251.794 407.063 250.877 406.165C249.979 405.248 248.292 404.79 245.817 404.79H243.727C241.216 404.79 239.144 405.129 237.512 405.807C235.881 406.467 234.991 407.512 234.845 408.942V423.958ZM270.433 428C269.076 428 268.398 427.322 268.398 425.965V402.755C268.398 401.417 269.076 400.747 270.433 400.747C271.771 400.747 272.44 401.417 272.44 402.755V405.615C273.485 404.02 274.86 402.81 276.565 401.985C278.289 401.16 280.287 400.747 282.56 400.747C283.917 400.747 284.595 401.417 284.595 402.755C284.595 404.112 283.917 404.79 282.56 404.79C279.352 404.79 276.895 405.432 275.19 406.715C273.485 407.98 272.569 409.712 272.44 411.912V425.965C272.44 427.322 271.771 428 270.433 428ZM301.46 428C297.885 428 295.236 427.147 293.512 425.442C291.807 423.737 290.955 421.107 290.955 417.55V411.225C290.955 407.613 291.807 404.964 293.512 403.277C295.236 401.572 297.885 400.729 301.46 400.747H305.97C309.545 400.747 312.185 401.6 313.89 403.305C315.595 405.01 316.447 407.65 316.447 411.225V417.495C316.447 421.07 315.595 423.719 313.89 425.442C312.185 427.147 309.545 428 305.97 428H301.46ZM294.997 417.55C294.997 419.988 295.456 421.666 296.372 422.582C297.289 423.499 298.985 423.958 301.46 423.958H305.97C308.445 423.958 310.131 423.499 311.03 422.582C311.946 421.666 312.405 419.97 312.405 417.495V411.225C312.405 408.75 311.946 407.063 311.03 406.165C310.131 405.248 308.445 404.79 305.97 404.79H301.46C299.81 404.79 298.517 404.982 297.582 405.367C296.647 405.752 295.978 406.412 295.575 407.347C295.19 408.282 294.997 409.575 294.997 411.225V417.55ZM337.927 428C334.352 428 331.703 427.147 329.98 425.442C328.275 423.737 327.422 421.107 327.422 417.55V411.225C327.422 407.613 328.275 404.964 329.98 403.277C331.703 401.572 334.352 400.729 337.927 400.747H342.437C346.012 400.747 348.652 401.6 350.357 403.305C352.062 405.01 352.915 407.65 352.915 411.225V417.495C352.915 421.07 352.062 423.719 350.357 425.442C348.652 427.147 346.012 428 342.437 428H337.927ZM331.465 417.55C331.465 419.988 331.923 421.666 332.84 422.582C333.756 423.499 335.452 423.958 337.927 423.958H342.437C344.912 423.958 346.599 423.499 347.497 422.582C348.414 421.666 348.872 419.97 348.872 417.495V411.225C348.872 408.75 348.414 407.063 347.497 406.165C346.599 405.248 344.912 404.79 342.437 404.79H337.927C336.277 404.79 334.985 404.982 334.05 405.367C333.115 405.752 332.446 406.412 332.042 407.347C331.657 408.282 331.465 409.575 331.465 411.225V417.55ZM367.905 428C366.548 428 365.87 427.322 365.87 425.965V404.79H363.752C362.396 404.79 361.717 404.112 361.717 402.755C361.717 401.417 362.396 400.747 363.752 400.747H365.87V399.785C365.87 396.265 366.713 393.671 368.4 392.002C370.087 390.316 372.69 389.472 376.21 389.472C377.402 389.472 377.997 390.142 377.997 391.48C377.997 392.837 377.402 393.515 376.21 393.515C373.808 393.515 372.158 393.955 371.26 394.835C370.362 395.715 369.912 397.365 369.912 399.785V400.747H375.962C377.319 400.747 377.997 401.417 377.997 402.755C377.997 404.112 377.319 404.79 375.962 404.79H369.912V425.965C369.912 427.322 369.243 428 367.905 428Z" fill="white"/>
</svg>
