<svg width="642" height="201" viewBox="0 0 642 201" fill="none" xmlns="http://www.w3.org/2000/svg">
<rect x="23" y="68.4193" width="121.995" height="28.9739" fill="#0030CF"/>
<rect x="23" y="147.208" width="121.487" height="29.4822" fill="#0030CF"/>
<path fill-rule="evenodd" clip-rule="evenodd" d="M82.6539 24C57.6998 24 37.4705 44.2293 37.4705 69.1835L55.042 69.1835C55.042 53.9337 67.4044 41.5713 82.6541 41.5713H83.4909C98.7406 41.5713 111.103 53.9337 111.103 69.1835L129.511 69.1835C129.511 44.2293 109.282 24 84.3274 24H82.6539Z" fill="#0030CF"/>
<path fill-rule="evenodd" clip-rule="evenodd" d="M154.145 108.068H32.658V137.55H154.145V108.068ZM148.668 111.693C150.427 113.242 150.558 115.881 148.96 117.586L134.385 133.134C133.582 133.991 132.446 134.486 131.251 134.5C130.055 134.513 128.908 134.044 128.084 133.205L120.258 125.242C118.619 123.574 118.685 120.933 120.407 119.344C122.128 117.756 124.852 117.82 126.491 119.488L131.126 124.205L142.589 111.976C144.187 110.271 146.909 110.144 148.668 111.693Z" fill="#0030CF"/>
<path d="M187.905 158C184.33 158 181.681 157.147 179.958 155.442C178.253 153.719 177.4 151.07 177.4 147.495V141.225C177.4 137.65 178.253 135.01 179.958 133.305C181.681 131.6 184.33 130.747 187.905 130.747H198.85V121.48C198.85 120.142 199.528 119.472 200.885 119.472C202.223 119.472 202.893 120.142 202.893 121.48V155.965C202.893 157.322 202.223 158 200.885 158C199.528 158 198.85 157.322 198.85 155.965V154.92C198.007 155.928 196.87 156.698 195.44 157.23C194.01 157.743 192.195 158 189.995 158H187.905ZM187.905 153.958H189.995C192.562 153.958 194.679 153.6 196.348 152.885C198.016 152.17 198.85 151.079 198.85 149.612V134.79H187.905C185.43 134.79 183.734 135.257 182.818 136.192C181.901 137.109 181.443 138.787 181.443 141.225V147.495C181.443 149.97 181.901 151.666 182.818 152.582C183.753 153.499 185.448 153.958 187.905 153.958ZM225.017 158C221.442 158 218.793 157.147 217.07 155.442C215.365 153.737 214.512 151.107 214.512 147.55V141.225C214.512 137.613 215.365 134.964 217.07 133.277C218.793 131.572 221.442 130.729 225.017 130.747H229.527C233.102 130.747 235.742 131.6 237.447 133.305C239.152 135.01 240.005 137.65 240.005 141.225V147.495C240.005 151.07 239.152 153.719 237.447 155.442C235.742 157.147 233.102 158 229.527 158H225.017ZM218.555 147.55C218.555 149.988 219.013 151.666 219.93 152.582C220.846 153.499 222.542 153.958 225.017 153.958H229.527C232.002 153.958 233.689 153.499 234.587 152.582C235.504 151.666 235.962 149.97 235.962 147.495V141.225C235.962 138.75 235.504 137.063 234.587 136.165C233.689 135.248 232.002 134.79 229.527 134.79H225.017C223.367 134.79 222.075 134.982 221.14 135.367C220.205 135.752 219.535 136.412 219.132 137.347C218.747 138.282 218.555 139.575 218.555 141.225V147.55ZM261.485 158C257.91 158 255.261 157.147 253.537 155.442C251.832 153.719 250.98 151.07 250.98 147.495V141.17C250.98 137.595 251.823 134.955 253.51 133.25C255.215 131.545 257.873 130.711 261.485 130.747H265.995C268.708 130.747 270.826 131.206 272.347 132.122C273.869 133.039 274.822 134.451 275.207 136.357C275.336 137.036 275.207 137.558 274.822 137.925C274.456 138.292 273.924 138.475 273.227 138.475C272.604 138.475 272.146 138.319 271.852 138.007C271.559 137.677 271.302 137.219 271.082 136.632C270.826 135.954 270.303 135.477 269.515 135.202C268.745 134.927 267.571 134.79 265.995 134.79H261.485C259.028 134.753 257.332 135.193 256.397 136.11C255.481 137.008 255.022 138.695 255.022 141.17V147.495C255.022 149.97 255.481 151.666 256.397 152.582C257.332 153.499 259.028 153.958 261.485 153.958H265.995C267.571 153.958 268.745 153.82 269.515 153.545C270.303 153.27 270.826 152.784 271.082 152.087C271.302 151.482 271.559 151.024 271.852 150.712C272.146 150.401 272.613 150.245 273.255 150.245C273.933 150.245 274.456 150.437 274.822 150.822C275.207 151.189 275.336 151.702 275.207 152.362C274.822 154.269 273.869 155.69 272.347 156.625C270.826 157.542 268.708 158 265.995 158H261.485ZM288.837 169C287.481 169 286.802 168.322 286.802 166.965V132.755C286.802 131.417 287.481 130.747 288.837 130.747C290.176 130.747 290.845 131.417 290.845 132.755V134.047C291.78 132.947 292.99 132.122 294.475 131.572C295.96 131.022 297.711 130.747 299.727 130.747H301.817C305.392 130.747 308.032 131.6 309.737 133.305C311.442 135.01 312.295 137.65 312.295 141.225V147.495C312.295 151.07 311.442 153.719 309.737 155.442C308.032 157.147 305.392 158 301.817 158H290.845V166.965C290.845 168.322 290.176 169 288.837 169ZM290.845 153.958H301.817C304.292 153.958 305.979 153.499 306.877 152.582C307.794 151.666 308.252 149.97 308.252 147.495V141.225C308.252 138.75 307.794 137.063 306.877 136.165C305.979 135.248 304.292 134.79 301.817 134.79H299.727C297.216 134.79 295.144 135.129 293.512 135.807C291.881 136.467 290.991 137.512 290.845 138.942V153.958ZM326.433 158C325.076 158 324.398 157.322 324.398 155.965V132.755C324.398 131.417 325.076 130.747 326.433 130.747C327.771 130.747 328.44 131.417 328.44 132.755V135.615C329.485 134.02 330.86 132.81 332.565 131.985C334.289 131.16 336.287 130.747 338.56 130.747C339.917 130.747 340.595 131.417 340.595 132.755C340.595 134.112 339.917 134.79 338.56 134.79C335.352 134.79 332.895 135.432 331.19 136.715C329.485 137.98 328.569 139.712 328.44 141.912V155.965C328.44 157.322 327.771 158 326.433 158ZM357.46 158C353.885 158 351.236 157.147 349.512 155.442C347.807 153.737 346.955 151.107 346.955 147.55V141.225C346.955 137.613 347.807 134.964 349.512 133.277C351.236 131.572 353.885 130.729 357.46 130.747H361.97C365.545 130.747 368.185 131.6 369.89 133.305C371.595 135.01 372.447 137.65 372.447 141.225V147.495C372.447 151.07 371.595 153.719 369.89 155.442C368.185 157.147 365.545 158 361.97 158H357.46ZM350.997 147.55C350.997 149.988 351.456 151.666 352.372 152.582C353.289 153.499 354.985 153.958 357.46 153.958H361.97C364.445 153.958 366.131 153.499 367.03 152.582C367.946 151.666 368.405 149.97 368.405 147.495V141.225C368.405 138.75 367.946 137.063 367.03 136.165C366.131 135.248 364.445 134.79 361.97 134.79H357.46C355.81 134.79 354.517 134.982 353.582 135.367C352.647 135.752 351.978 136.412 351.575 137.347C351.19 138.282 350.997 139.575 350.997 141.225V147.55ZM393.927 158C390.352 158 387.703 157.147 385.98 155.442C384.275 153.737 383.422 151.107 383.422 147.55V141.225C383.422 137.613 384.275 134.964 385.98 133.277C387.703 131.572 390.352 130.729 393.927 130.747H398.437C402.012 130.747 404.652 131.6 406.357 133.305C408.062 135.01 408.915 137.65 408.915 141.225V147.495C408.915 151.07 408.062 153.719 406.357 155.442C404.652 157.147 402.012 158 398.437 158H393.927ZM387.465 147.55C387.465 149.988 387.923 151.666 388.84 152.582C389.756 153.499 391.452 153.958 393.927 153.958H398.437C400.912 153.958 402.599 153.499 403.497 152.582C404.414 151.666 404.872 149.97 404.872 147.495V141.225C404.872 138.75 404.414 137.063 403.497 136.165C402.599 135.248 400.912 134.79 398.437 134.79H393.927C392.277 134.79 390.985 134.982 390.05 135.367C389.115 135.752 388.446 136.412 388.042 137.347C387.657 138.282 387.465 139.575 387.465 141.225V147.55ZM423.905 158C422.548 158 421.87 157.322 421.87 155.965V134.79H419.752C418.396 134.79 417.717 134.112 417.717 132.755C417.717 131.417 418.396 130.747 419.752 130.747H421.87V129.785C421.87 126.265 422.713 123.671 424.4 122.002C426.087 120.316 428.69 119.472 432.21 119.472C433.402 119.472 433.997 120.142 433.997 121.48C433.997 122.837 433.402 123.515 432.21 123.515C429.808 123.515 428.158 123.955 427.26 124.835C426.362 125.715 425.912 127.365 425.912 129.785V130.747H431.962C433.319 130.747 433.997 131.417 433.997 132.755C433.997 134.112 433.319 134.79 431.962 134.79H425.912V155.965C425.912 157.322 425.243 158 423.905 158Z" fill="#0030CF"/>
<path fill-rule="evenodd" clip-rule="evenodd" d="M421.109 116.206H444.248L454.183 86.1532L431.344 88.126L421.109 116.206ZM464.824 67.6732L462.558 60.8181L460.128 68.1681L437.758 70.5255L449.977 37H475.363L504.119 116.206H480.867L470.468 84.7466L470.555 84.7391L464.86 67.6694L464.824 67.6732ZM216.161 93.9598L216.09 93.856L202.948 116.214H177.899L203.621 75.6553L177 37.0071H202.948L217.887 58.8029L230.692 37.0071H255.741L230.355 76.8912L240.298 91.3346L216.212 93.8729L216.161 93.9598ZM224.446 105.997L231.478 116.214H257.426L248.936 103.882L224.446 105.997ZM264.576 102.531L259.589 116.214H282.728L287.918 100.515L264.576 102.531ZM308.739 84.1221L301.038 60.8252L292.781 85.8038L269.789 88.2268L288.457 37.0071H313.843L330.129 81.8679L308.739 84.1221ZM313.429 98.3111L319.347 116.214H342.598L335.41 96.4125L313.429 98.3111ZM346.404 95.4628V116.214H368.42V93.5611L346.404 95.4628ZM368.436 93.5553L395.266 91.2731V116.214H417.282V37.0071H395.266V74.9587L368.42 77.7479V37.0071H346.404V80.1527L368.436 77.831V93.5553ZM523.886 61.4966V37.0071H501.982V63.7873L523.886 61.4966ZM523.886 80.1955V82.9581C523.886 87.2273 524.859 90.5229 526.806 92.8448C528.828 95.1667 531.861 96.3277 535.905 96.3277C539.948 96.3277 542.981 95.1667 545.003 92.8448C547.1 90.448 548.148 87.1524 548.148 82.9581V78.1285L570.164 76.2528V82.9581C570.164 90.2233 568.629 96.44 565.559 101.608C562.489 106.701 558.295 110.559 552.978 113.18C547.736 115.727 541.895 117 535.455 117C529.015 117 523.249 115.727 518.157 113.18C513.14 110.559 509.171 106.701 506.25 101.608C503.405 96.5149 501.982 90.2982 501.982 82.9581V82.0616L523.886 80.1955ZM570.164 56.6569L548.148 58.9593V37.0071H570.164V56.6569Z" fill="#0030CF"/>
<path d="M617.318 59.9952C618.934 60.7331 619.121 62.8928 617.655 63.8828L594.903 79.2469C593.437 80.2368 591.417 79.3145 591.267 77.5867L588.941 50.7709C588.791 49.0431 590.624 47.8056 592.24 48.5435L617.318 59.9952Z" fill="#0030CF"/>
</svg>
