<svg width="684" height="201" viewBox="0 0 684 201" fill="none" xmlns="http://www.w3.org/2000/svg">
<rect width="684" height="201" fill="white"/>
<rect x="34" y="65.709" width="122.791" height="29.1628" fill="#0030CF"/>
<rect x="34" y="145.011" width="122.279" height="29.6744" fill="#0030CF"/>
<path fill-rule="evenodd" clip-rule="evenodd" d="M94.043 21C68.9262 21 48.5649 41.3612 48.5649 66.4781H66.2509C66.2509 51.1289 78.6938 38.6859 94.043 38.6859H94.8852C110.234 38.6859 122.677 51.1289 122.677 66.4781H141.206C141.206 41.3612 120.844 21 95.7274 21H94.043Z" fill="#0030CF"/>
<path fill-rule="evenodd" clip-rule="evenodd" d="M166 105.616H43.7209V135.29H166V105.616ZM160.488 109.265C162.258 110.824 162.39 113.48 160.781 115.196L146.112 130.845C145.303 131.709 144.16 132.207 142.957 132.22C141.754 132.234 140.599 131.762 139.769 130.918L131.893 122.902C130.243 121.223 130.31 118.565 132.042 116.966C133.774 115.367 136.517 115.432 138.166 117.111L142.831 121.858L154.369 109.549C155.977 107.833 158.717 107.706 160.488 109.265Z" fill="#0030CF"/>
<path d="M214.905 168C211.33 168 208.681 167.147 206.958 165.442C205.253 163.719 204.4 161.07 204.4 157.495V151.225C204.4 147.65 205.253 145.01 206.958 143.305C208.681 141.6 211.33 140.747 214.905 140.747H225.85V131.48C225.85 130.142 226.528 129.472 227.885 129.472C229.223 129.472 229.893 130.142 229.893 131.48V165.965C229.893 167.322 229.223 168 227.885 168C226.528 168 225.85 167.322 225.85 165.965V164.92C225.007 165.928 223.87 166.698 222.44 167.23C221.01 167.743 219.195 168 216.995 168H214.905ZM214.905 163.958H216.995C219.562 163.958 221.679 163.6 223.348 162.885C225.016 162.17 225.85 161.079 225.85 159.612V144.79H214.905C212.43 144.79 210.734 145.257 209.818 146.192C208.901 147.109 208.443 148.787 208.443 151.225V157.495C208.443 159.97 208.901 161.666 209.818 162.582C210.753 163.499 212.448 163.958 214.905 163.958ZM252.017 168C248.442 168 245.793 167.147 244.07 165.442C242.365 163.737 241.512 161.107 241.512 157.55V151.225C241.512 147.613 242.365 144.964 244.07 143.277C245.793 141.572 248.442 140.729 252.017 140.747H256.527C260.102 140.747 262.742 141.6 264.447 143.305C266.152 145.01 267.005 147.65 267.005 151.225V157.495C267.005 161.07 266.152 163.719 264.447 165.442C262.742 167.147 260.102 168 256.527 168H252.017ZM245.555 157.55C245.555 159.988 246.013 161.666 246.93 162.582C247.846 163.499 249.542 163.958 252.017 163.958H256.527C259.002 163.958 260.689 163.499 261.587 162.582C262.504 161.666 262.962 159.97 262.962 157.495V151.225C262.962 148.75 262.504 147.063 261.587 146.165C260.689 145.248 259.002 144.79 256.527 144.79H252.017C250.367 144.79 249.075 144.982 248.14 145.367C247.205 145.752 246.535 146.412 246.132 147.347C245.747 148.282 245.555 149.575 245.555 151.225V157.55ZM288.485 168C284.91 168 282.261 167.147 280.537 165.442C278.832 163.719 277.98 161.07 277.98 157.495V151.17C277.98 147.595 278.823 144.955 280.51 143.25C282.215 141.545 284.873 140.711 288.485 140.747H292.995C295.708 140.747 297.826 141.206 299.347 142.122C300.869 143.039 301.822 144.451 302.207 146.357C302.336 147.036 302.207 147.558 301.822 147.925C301.456 148.292 300.924 148.475 300.227 148.475C299.604 148.475 299.146 148.319 298.852 148.007C298.559 147.677 298.302 147.219 298.082 146.632C297.826 145.954 297.303 145.477 296.515 145.202C295.745 144.927 294.571 144.79 292.995 144.79H288.485C286.028 144.753 284.332 145.193 283.397 146.11C282.481 147.008 282.022 148.695 282.022 151.17V157.495C282.022 159.97 282.481 161.666 283.397 162.582C284.332 163.499 286.028 163.958 288.485 163.958H292.995C294.571 163.958 295.745 163.82 296.515 163.545C297.303 163.27 297.826 162.784 298.082 162.087C298.302 161.482 298.559 161.024 298.852 160.712C299.146 160.401 299.613 160.245 300.255 160.245C300.933 160.245 301.456 160.437 301.822 160.822C302.207 161.189 302.336 161.702 302.207 162.362C301.822 164.269 300.869 165.69 299.347 166.625C297.826 167.542 295.708 168 292.995 168H288.485ZM315.837 179C314.481 179 313.802 178.322 313.802 176.965V142.755C313.802 141.417 314.481 140.747 315.837 140.747C317.176 140.747 317.845 141.417 317.845 142.755V144.047C318.78 142.947 319.99 142.122 321.475 141.572C322.96 141.022 324.711 140.747 326.727 140.747H328.817C332.392 140.747 335.032 141.6 336.737 143.305C338.442 145.01 339.295 147.65 339.295 151.225V157.495C339.295 161.07 338.442 163.719 336.737 165.442C335.032 167.147 332.392 168 328.817 168H317.845V176.965C317.845 178.322 317.176 179 315.837 179ZM317.845 163.958H328.817C331.292 163.958 332.979 163.499 333.877 162.582C334.794 161.666 335.252 159.97 335.252 157.495V151.225C335.252 148.75 334.794 147.063 333.877 146.165C332.979 145.248 331.292 144.79 328.817 144.79H326.727C324.216 144.79 322.144 145.129 320.512 145.807C318.881 146.467 317.991 147.512 317.845 148.942V163.958ZM353.433 168C352.076 168 351.398 167.322 351.398 165.965V142.755C351.398 141.417 352.076 140.747 353.433 140.747C354.771 140.747 355.44 141.417 355.44 142.755V145.615C356.485 144.02 357.86 142.81 359.565 141.985C361.289 141.16 363.287 140.747 365.56 140.747C366.917 140.747 367.595 141.417 367.595 142.755C367.595 144.112 366.917 144.79 365.56 144.79C362.352 144.79 359.895 145.432 358.19 146.715C356.485 147.98 355.569 149.712 355.44 151.912V165.965C355.44 167.322 354.771 168 353.433 168ZM384.46 168C380.885 168 378.236 167.147 376.512 165.442C374.807 163.737 373.955 161.107 373.955 157.55V151.225C373.955 147.613 374.807 144.964 376.512 143.277C378.236 141.572 380.885 140.729 384.46 140.747H388.97C392.545 140.747 395.185 141.6 396.89 143.305C398.595 145.01 399.447 147.65 399.447 151.225V157.495C399.447 161.07 398.595 163.719 396.89 165.442C395.185 167.147 392.545 168 388.97 168H384.46ZM377.997 157.55C377.997 159.988 378.456 161.666 379.372 162.582C380.289 163.499 381.985 163.958 384.46 163.958H388.97C391.445 163.958 393.131 163.499 394.03 162.582C394.946 161.666 395.405 159.97 395.405 157.495V151.225C395.405 148.75 394.946 147.063 394.03 146.165C393.131 145.248 391.445 144.79 388.97 144.79H384.46C382.81 144.79 381.517 144.982 380.582 145.367C379.647 145.752 378.978 146.412 378.575 147.347C378.19 148.282 377.997 149.575 377.997 151.225V157.55ZM420.927 168C417.352 168 414.703 167.147 412.98 165.442C411.275 163.737 410.422 161.107 410.422 157.55V151.225C410.422 147.613 411.275 144.964 412.98 143.277C414.703 141.572 417.352 140.729 420.927 140.747H425.437C429.012 140.747 431.652 141.6 433.357 143.305C435.062 145.01 435.915 147.65 435.915 151.225V157.495C435.915 161.07 435.062 163.719 433.357 165.442C431.652 167.147 429.012 168 425.437 168H420.927ZM414.465 157.55C414.465 159.988 414.923 161.666 415.84 162.582C416.756 163.499 418.452 163.958 420.927 163.958H425.437C427.912 163.958 429.599 163.499 430.497 162.582C431.414 161.666 431.872 159.97 431.872 157.495V151.225C431.872 148.75 431.414 147.063 430.497 146.165C429.599 145.248 427.912 144.79 425.437 144.79H420.927C419.277 144.79 417.985 144.982 417.05 145.367C416.115 145.752 415.446 146.412 415.042 147.347C414.657 148.282 414.465 149.575 414.465 151.225V157.55ZM450.905 168C449.548 168 448.87 167.322 448.87 165.965V144.79H446.752C445.396 144.79 444.717 144.112 444.717 142.755C444.717 141.417 445.396 140.747 446.752 140.747H448.87V139.785C448.87 136.265 449.713 133.671 451.4 132.002C453.087 130.316 455.69 129.472 459.21 129.472C460.402 129.472 460.997 130.142 460.997 131.48C460.997 132.837 460.402 133.515 459.21 133.515C456.808 133.515 455.158 133.955 454.26 134.835C453.362 135.715 452.912 137.365 452.912 139.785V140.747H458.962C460.319 140.747 460.997 141.417 460.997 142.755C460.997 144.112 460.319 144.79 458.962 144.79H452.912V165.965C452.912 167.322 452.243 168 450.905 168Z" fill="#0030CF"/>
<path fill-rule="evenodd" clip-rule="evenodd" d="M447.109 116.206H470.248L480.183 86.1532L457.344 88.126L447.109 116.206ZM490.824 67.6732L488.558 60.8181L486.128 68.1681L463.758 70.5255L475.977 37H501.363L530.119 116.206H506.867L496.468 84.7466L496.555 84.7391L490.86 67.6694L490.824 67.6732ZM242.161 93.9598L242.09 93.856L228.948 116.214H203.899L229.621 75.6553L203 37.0071H228.948L243.887 58.8029L256.692 37.0071H281.741L256.355 76.8912L266.298 91.3346L242.212 93.8729L242.161 93.9598ZM250.446 105.997L257.478 116.214H283.426L274.936 103.882L250.446 105.997ZM290.576 102.531L285.589 116.214H308.728L313.918 100.515L290.576 102.531ZM334.739 84.1221L327.038 60.8252L318.781 85.8038L295.789 88.2268L314.457 37.0071H339.843L356.129 81.8679L334.739 84.1221ZM339.429 98.3111L345.347 116.214H368.598L361.41 96.4125L339.429 98.3111ZM372.404 95.4628V116.214H394.42V93.5611L372.404 95.4628ZM394.436 93.5553L421.266 91.2731V116.214H443.282V37.0071H421.266V74.9587L394.42 77.7479V37.0071H372.404V80.1527L394.436 77.831V93.5553ZM549.886 61.4966V37.0071H527.982V63.7873L549.886 61.4966ZM549.886 80.1955V82.9581C549.886 87.2273 550.859 90.5229 552.806 92.8448C554.828 95.1667 557.861 96.3277 561.905 96.3277C565.948 96.3277 568.981 95.1667 571.003 92.8448C573.1 90.448 574.148 87.1524 574.148 82.9581V78.1285L596.164 76.2528V82.9581C596.164 90.2233 594.629 96.44 591.559 101.608C588.489 106.701 584.295 110.559 578.978 113.18C573.736 115.727 567.895 117 561.455 117C555.015 117 549.249 115.727 544.157 113.18C539.14 110.559 535.171 106.701 532.25 101.608C529.405 96.5149 527.982 90.2982 527.982 82.9581V82.0616L549.886 80.1955ZM596.164 56.6569L574.148 58.9593V37.0071H596.164V56.6569Z" fill="#0030CF"/>
<path d="M643.318 59.9952C644.934 60.7331 645.121 62.8928 643.655 63.8828L620.903 79.2469C619.437 80.2368 617.417 79.3145 617.267 77.5867L614.941 50.7709C614.791 49.0431 616.624 47.8056 618.24 48.5435L643.318 59.9952Z" fill="#0030CF"/>
</svg>
