<svg width="400" height="123" viewBox="0 0 400 123" fill="none" xmlns="http://www.w3.org/2000/svg">
<path d="M227.45 107.6C225.517 107.6 223.808 107.142 222.325 106.225C220.842 105.308 219.675 104.033 218.825 102.4C217.992 100.767 217.575 98.8833 217.575 96.75C217.575 94.6167 217.992 92.7333 218.825 91.1C219.675 89.4667 220.842 88.1917 222.325 87.275C223.808 86.3417 225.517 85.875 227.45 85.875C228.883 85.875 230.158 86.125 231.275 86.625C232.392 87.1083 233.283 87.675 233.95 88.325C234.617 88.975 235.008 89.55 235.125 90.05V72.6H240.475V107H235.2V103.2C234.967 103.783 234.492 104.417 233.775 105.1C233.058 105.783 232.15 106.375 231.05 106.875C229.967 107.358 228.767 107.6 227.45 107.6ZM228.825 103.275C229.992 103.275 231.05 103 232 102.45C232.95 101.9 233.708 101.142 234.275 100.175C234.842 99.1917 235.125 98.05 235.125 96.75C235.125 95.45 234.842 94.3167 234.275 93.35C233.708 92.3667 232.95 91.6 232 91.05C231.05 90.4833 229.992 90.2 228.825 90.2C227.758 90.2 226.767 90.475 225.85 91.025C224.95 91.5583 224.225 92.3167 223.675 93.3C223.125 94.2833 222.85 95.4333 222.85 96.75C222.85 98.0667 223.125 99.2167 223.675 100.2C224.225 101.183 224.95 101.942 225.85 102.475C226.767 103.008 227.758 103.275 228.825 103.275ZM254.959 107.6C252.809 107.6 250.892 107.133 249.209 106.2C247.542 105.25 246.234 103.967 245.284 102.35C244.334 100.717 243.859 98.8667 243.859 96.8C243.859 94.7333 244.334 92.875 245.284 91.225C246.234 89.575 247.542 88.275 249.209 87.325C250.892 86.3583 252.809 85.875 254.959 85.875C257.109 85.875 259.009 86.3583 260.659 87.325C262.309 88.275 263.601 89.575 264.534 91.225C265.484 92.875 265.959 94.7333 265.959 96.8C265.959 98.8667 265.484 100.717 264.534 102.35C263.601 103.967 262.309 105.25 260.659 106.2C259.009 107.133 257.109 107.6 254.959 107.6ZM254.959 103.1C256.159 103.1 257.201 102.825 258.084 102.275C258.967 101.725 259.651 100.975 260.134 100.025C260.617 99.075 260.859 97.9917 260.859 96.775C260.859 95.5583 260.617 94.475 260.134 93.525C259.651 92.5583 258.967 91.7917 258.084 91.225C257.201 90.6583 256.159 90.375 254.959 90.375C253.759 90.375 252.709 90.6583 251.809 91.225C250.926 91.7917 250.234 92.5583 249.734 93.525C249.251 94.475 249.009 95.5583 249.009 96.775C249.009 97.9917 249.251 99.075 249.734 100.025C250.234 100.975 250.926 101.725 251.809 102.275C252.709 102.825 253.759 103.1 254.959 103.1ZM280.602 103.275C281.785 103.275 282.744 103.083 283.477 102.7C284.227 102.3 284.71 102.008 284.927 101.825L287.452 105.575C287.252 105.742 286.835 105.992 286.202 106.325C285.569 106.642 284.76 106.933 283.777 107.2C282.81 107.467 281.71 107.6 280.477 107.6C278.444 107.6 276.594 107.175 274.927 106.325C273.277 105.458 271.952 104.217 270.952 102.6C269.969 100.967 269.477 99.0083 269.477 96.725C269.477 94.425 269.969 92.4667 270.952 90.85C271.952 89.2333 273.277 88 274.927 87.15C276.594 86.3 278.444 85.875 280.477 85.875C281.694 85.875 282.777 86.0167 283.727 86.3C284.694 86.5667 285.494 86.875 286.127 87.225C286.76 87.575 287.185 87.85 287.402 88.05L284.827 91.8C284.71 91.6833 284.469 91.5 284.102 91.25C283.752 90.9833 283.285 90.7417 282.702 90.525C282.119 90.3083 281.419 90.2 280.602 90.2C279.602 90.2 278.644 90.4667 277.727 91C276.81 91.5333 276.06 92.2917 275.477 93.275C274.894 94.2417 274.602 95.3917 274.602 96.725C274.602 98.0583 274.894 99.2167 275.477 100.2C276.06 101.183 276.81 101.942 277.727 102.475C278.644 103.008 279.602 103.275 280.602 103.275ZM299.379 85.875C300.529 85.875 301.596 85.9833 302.579 86.2C303.562 86.4167 304.404 86.675 305.104 86.975C305.804 87.275 306.287 87.525 306.554 87.725L304.604 91.025C304.271 90.7417 303.671 90.4167 302.804 90.05C301.954 89.6833 300.996 89.5 299.929 89.5C298.862 89.5 297.962 89.6917 297.229 90.075C296.496 90.4583 296.129 91.0333 296.129 91.8C296.129 92.55 296.512 93.15 297.279 93.6C298.062 94.05 299.121 94.425 300.454 94.725C301.554 94.975 302.604 95.325 303.604 95.775C304.604 96.2083 305.421 96.8333 306.054 97.65C306.704 98.45 307.029 99.525 307.029 100.875C307.029 102.158 306.754 103.233 306.204 104.1C305.671 104.95 304.954 105.633 304.054 106.15C303.154 106.667 302.154 107.033 301.054 107.25C299.971 107.483 298.879 107.6 297.779 107.6C296.429 107.6 295.221 107.467 294.154 107.2C293.104 106.933 292.229 106.625 291.529 106.275C290.829 105.908 290.329 105.6 290.029 105.35L291.979 101.65C292.412 102.067 293.121 102.508 294.104 102.975C295.087 103.425 296.187 103.65 297.404 103.65C298.704 103.65 299.746 103.4 300.529 102.9C301.312 102.4 301.704 101.733 301.704 100.9C301.704 100.283 301.512 99.7833 301.129 99.4C300.762 99.0167 300.254 98.7083 299.604 98.475C298.954 98.2417 298.229 98.0333 297.429 97.85C296.679 97.6667 295.921 97.4333 295.154 97.15C294.404 96.85 293.712 96.4667 293.079 96C292.446 95.5167 291.937 94.9167 291.554 94.2C291.171 93.4833 290.979 92.6417 290.979 91.675C290.979 90.4417 291.371 89.3917 292.154 88.525C292.937 87.6583 293.971 87 295.254 86.55C296.537 86.1 297.912 85.875 299.379 85.875ZM312.186 107V86.475H317.511V107H312.186ZM314.911 80.325C314.011 80.325 313.236 80 312.586 79.35C311.952 78.7 311.636 77.925 311.636 77.025C311.636 76.125 311.952 75.35 312.586 74.7C313.236 74.0333 314.011 73.7 314.911 73.7C315.511 73.7 316.061 73.8583 316.561 74.175C317.077 74.475 317.486 74.875 317.786 75.375C318.102 75.8583 318.261 76.4083 318.261 77.025C318.261 77.925 317.936 78.7 317.286 79.35C316.636 80 315.844 80.325 314.911 80.325ZM333.848 117.975C332.282 117.975 330.823 117.817 329.473 117.5C328.14 117.2 326.948 116.742 325.898 116.125C324.848 115.525 323.998 114.783 323.348 113.9L326.673 110.6C327.023 111.033 327.473 111.483 328.023 111.95C328.573 112.433 329.298 112.833 330.198 113.15C331.098 113.483 332.24 113.65 333.623 113.65C334.973 113.65 336.123 113.375 337.073 112.825C338.04 112.275 338.773 111.517 339.273 110.55C339.79 109.6 340.048 108.5 340.048 107.25V106.625H345.298V107.575C345.298 109.842 344.79 111.742 343.773 113.275C342.757 114.825 341.382 115.992 339.648 116.775C337.915 117.575 335.982 117.975 333.848 117.975ZM340.048 107V103.2C339.915 103.6 339.532 104.15 338.898 104.85C338.282 105.55 337.432 106.183 336.348 106.75C335.282 107.317 334.015 107.6 332.548 107.6C330.632 107.6 328.907 107.142 327.373 106.225C325.84 105.308 324.632 104.033 323.748 102.4C322.865 100.767 322.423 98.8833 322.423 96.75C322.423 94.6167 322.865 92.7333 323.748 91.1C324.632 89.4667 325.84 88.1917 327.373 87.275C328.907 86.3417 330.632 85.875 332.548 85.875C333.982 85.875 335.223 86.125 336.273 86.625C337.323 87.125 338.165 87.7 338.798 88.35C339.448 89 339.848 89.5667 339.998 90.05V86.475H345.298V107H340.048ZM327.698 96.75C327.698 98.0667 327.99 99.2167 328.573 100.2C329.157 101.183 329.915 101.942 330.848 102.475C331.798 103.008 332.815 103.275 333.898 103.275C335.065 103.275 336.098 103 336.998 102.45C337.915 101.9 338.632 101.142 339.148 100.175C339.682 99.1917 339.948 98.05 339.948 96.75C339.948 95.45 339.682 94.3167 339.148 93.35C338.632 92.3667 337.915 91.6 336.998 91.05C336.098 90.4833 335.065 90.2 333.898 90.2C332.815 90.2 331.798 90.475 330.848 91.025C329.915 91.5583 329.157 92.3167 328.573 93.3C327.99 94.2833 327.698 95.4333 327.698 96.75ZM363.27 85.875C364.653 85.875 365.995 86.1583 367.295 86.725C368.595 87.2917 369.661 88.2 370.495 89.45C371.345 90.6833 371.77 92.2917 371.77 94.275V107H366.395V95.25C366.395 93.4 365.953 92.0417 365.07 91.175C364.203 90.2917 363.078 89.85 361.695 89.85C360.778 89.85 359.903 90.1083 359.07 90.625C358.236 91.1417 357.553 91.8417 357.02 92.725C356.503 93.6083 356.245 94.625 356.245 95.775V107H350.895V86.475H356.245V89.925C356.395 89.3583 356.795 88.7667 357.445 88.15C358.111 87.5167 358.953 86.9833 359.97 86.55C360.986 86.1 362.086 85.875 363.27 85.875Z" fill="white"/>
<path fill-rule="evenodd" clip-rule="evenodd" d="M222.383 69.0934H239.788L247.262 46.4869L230.082 47.9709L222.383 69.0934ZM255.266 32.586L253.561 27.4295L251.733 32.9583L234.907 34.7316L244.098 9.51328H263.193L284.824 69.0934H267.334L259.511 45.4289L259.577 45.4232L255.293 32.5832L255.266 32.586ZM68.2186 52.3591L68.1649 52.2811L58.2791 69.0987H39.4371L58.7861 38.5903L38.7611 9.51858H58.2791L69.5167 25.9137L79.149 9.51858H97.9911L78.8956 39.5199L86.375 50.3844L68.2571 52.2938L68.2186 52.3591ZM74.451 61.4138L79.7404 69.0987H99.2585L92.8725 59.8226L74.451 61.4138ZM104.637 58.8064L100.886 69.0987H118.291L122.195 57.2898L104.637 58.8064ZM137.857 44.9591L132.064 27.4349L125.853 46.2241L108.558 48.0467L122.6 9.51858H141.696L153.947 43.2635L137.857 44.9591ZM141.385 55.6322L145.836 69.0987H163.326L157.919 54.2041L141.385 55.6322ZM166.189 53.4897V69.0987H182.75V52.0592L166.189 53.4897ZM182.762 52.0549L202.944 50.3382V69.0987H219.504V9.51858H202.944V38.0663L182.75 40.1643V9.51858H166.189V41.9733L182.762 40.2269V52.0549ZM299.693 27.9399V9.51858H283.217V29.663L299.693 27.9399ZM299.693 42.0055V44.0835C299.693 47.2949 300.425 49.7739 301.89 51.5204C303.41 53.267 305.692 54.1403 308.734 54.1403C311.775 54.1403 314.057 53.267 315.578 51.5204C317.155 49.7175 317.943 47.2385 317.943 44.0835V40.4506L334.504 39.0397V44.0835C334.504 49.5485 333.349 54.2248 331.04 58.1123C328.731 61.9435 325.576 64.845 321.576 66.8169C317.633 68.7325 313.24 69.6903 308.395 69.6903C303.551 69.6903 299.214 68.7325 295.384 66.8169C291.61 64.845 288.624 61.9435 286.427 58.1123C284.287 54.2811 283.217 49.6048 283.217 44.0835V43.4092L299.693 42.0055ZM334.504 24.2994L317.943 26.0313V9.51858H334.504V24.2994Z" fill="white"/>
<path d="M369.974 26.8105C371.189 27.3656 371.33 28.9902 370.227 29.7349L353.113 41.2919C352.01 42.0365 350.491 41.3428 350.378 40.0431L348.628 19.8719C348.515 18.5722 349.894 17.6414 351.11 18.1964L369.974 26.8105Z" fill="white"/>
</svg>
