<svg width="400" height="123" viewBox="0 0 400 123" fill="none" xmlns="http://www.w3.org/2000/svg">
<path d="M201.45 107.6C199.517 107.6 197.808 107.142 196.325 106.225C194.842 105.308 193.675 104.033 192.825 102.4C191.992 100.767 191.575 98.8833 191.575 96.75C191.575 94.6167 191.992 92.7333 192.825 91.1C193.675 89.4667 194.842 88.1917 196.325 87.275C197.808 86.3417 199.517 85.875 201.45 85.875C202.883 85.875 204.158 86.125 205.275 86.625C206.392 87.1083 207.283 87.675 207.95 88.325C208.617 88.975 209.008 89.55 209.125 90.05V72.6H214.475V107H209.2V103.2C208.967 103.783 208.492 104.417 207.775 105.1C207.058 105.783 206.15 106.375 205.05 106.875C203.967 107.358 202.767 107.6 201.45 107.6ZM202.825 103.275C203.992 103.275 205.05 103 206 102.45C206.95 101.9 207.708 101.142 208.275 100.175C208.842 99.1917 209.125 98.05 209.125 96.75C209.125 95.45 208.842 94.3167 208.275 93.35C207.708 92.3667 206.95 91.6 206 91.05C205.05 90.4833 203.992 90.2 202.825 90.2C201.758 90.2 200.767 90.475 199.85 91.025C198.95 91.5583 198.225 92.3167 197.675 93.3C197.125 94.2833 196.85 95.4333 196.85 96.75C196.85 98.0667 197.125 99.2167 197.675 100.2C198.225 101.183 198.95 101.942 199.85 102.475C200.767 103.008 201.758 103.275 202.825 103.275ZM228.959 107.6C226.809 107.6 224.892 107.133 223.209 106.2C221.542 105.25 220.234 103.967 219.284 102.35C218.334 100.717 217.859 98.8667 217.859 96.8C217.859 94.7333 218.334 92.875 219.284 91.225C220.234 89.575 221.542 88.275 223.209 87.325C224.892 86.3583 226.809 85.875 228.959 85.875C231.109 85.875 233.009 86.3583 234.659 87.325C236.309 88.275 237.601 89.575 238.534 91.225C239.484 92.875 239.959 94.7333 239.959 96.8C239.959 98.8667 239.484 100.717 238.534 102.35C237.601 103.967 236.309 105.25 234.659 106.2C233.009 107.133 231.109 107.6 228.959 107.6ZM228.959 103.1C230.159 103.1 231.201 102.825 232.084 102.275C232.967 101.725 233.651 100.975 234.134 100.025C234.617 99.075 234.859 97.9917 234.859 96.775C234.859 95.5583 234.617 94.475 234.134 93.525C233.651 92.5583 232.967 91.7917 232.084 91.225C231.201 90.6583 230.159 90.375 228.959 90.375C227.759 90.375 226.709 90.6583 225.809 91.225C224.926 91.7917 224.234 92.5583 223.734 93.525C223.251 94.475 223.009 95.5583 223.009 96.775C223.009 97.9917 223.251 99.075 223.734 100.025C224.234 100.975 224.926 101.725 225.809 102.275C226.709 102.825 227.759 103.1 228.959 103.1ZM254.602 103.275C255.785 103.275 256.744 103.083 257.477 102.7C258.227 102.3 258.71 102.008 258.927 101.825L261.452 105.575C261.252 105.742 260.835 105.992 260.202 106.325C259.569 106.642 258.76 106.933 257.777 107.2C256.81 107.467 255.71 107.6 254.477 107.6C252.444 107.6 250.594 107.175 248.927 106.325C247.277 105.458 245.952 104.217 244.952 102.6C243.969 100.967 243.477 99.0083 243.477 96.725C243.477 94.425 243.969 92.4667 244.952 90.85C245.952 89.2333 247.277 88 248.927 87.15C250.594 86.3 252.444 85.875 254.477 85.875C255.694 85.875 256.777 86.0167 257.727 86.3C258.694 86.5667 259.494 86.875 260.127 87.225C260.76 87.575 261.185 87.85 261.402 88.05L258.827 91.8C258.71 91.6833 258.469 91.5 258.102 91.25C257.752 90.9833 257.285 90.7417 256.702 90.525C256.119 90.3083 255.419 90.2 254.602 90.2C253.602 90.2 252.644 90.4667 251.727 91C250.81 91.5333 250.06 92.2917 249.477 93.275C248.894 94.2417 248.602 95.3917 248.602 96.725C248.602 98.0583 248.894 99.2167 249.477 100.2C250.06 101.183 250.81 101.942 251.727 102.475C252.644 103.008 253.602 103.275 254.602 103.275ZM270.7 117.4H265.4V86.475H270.775V90.05C270.959 89.55 271.384 88.975 272.05 88.325C272.734 87.675 273.634 87.1083 274.75 86.625C275.867 86.125 277.142 85.875 278.575 85.875C280.509 85.875 282.2 86.3417 283.65 87.275C285.117 88.1917 286.259 89.4667 287.075 91.1C287.909 92.7333 288.325 94.6167 288.325 96.75C288.325 98.8833 287.9 100.767 287.05 102.4C286.2 104.033 285.025 105.308 283.525 106.225C282.042 107.142 280.334 107.6 278.4 107.6C276.884 107.6 275.567 107.325 274.45 106.775C273.334 106.208 272.459 105.575 271.825 104.875C271.192 104.175 270.817 103.617 270.7 103.2V117.4ZM283.05 96.75C283.05 95.4333 282.775 94.2833 282.225 93.3C281.675 92.3167 280.942 91.5583 280.025 91.025C279.125 90.475 278.134 90.2 277.05 90.2C275.884 90.2 274.825 90.4833 273.875 91.05C272.925 91.6 272.167 92.3667 271.6 93.35C271.05 94.3167 270.775 95.45 270.775 96.75C270.775 98.05 271.05 99.1917 271.6 100.175C272.167 101.142 272.925 101.9 273.875 102.45C274.825 103 275.884 103.275 277.05 103.275C278.134 103.275 279.125 103.008 280.025 102.475C280.942 101.942 281.675 101.183 282.225 100.2C282.775 99.2167 283.05 98.0667 283.05 96.75ZM297.745 107H292.42V86.475H297.745V89.9H297.62C297.737 89.4833 298.054 88.9667 298.57 88.35C299.104 87.7167 299.837 87.15 300.77 86.65C301.704 86.1333 302.829 85.875 304.145 85.875C305.095 85.875 305.945 86.0083 306.695 86.275C307.445 86.5417 307.979 86.8083 308.295 87.075L306.145 91.475C305.929 91.2083 305.52 90.95 304.92 90.7C304.337 90.4333 303.612 90.3 302.745 90.3C301.662 90.3 300.745 90.6167 299.995 91.25C299.262 91.8833 298.704 92.6417 298.32 93.525C297.937 94.4083 297.745 95.2333 297.745 96V107ZM320.17 107.6C318.02 107.6 316.103 107.133 314.42 106.2C312.753 105.25 311.445 103.967 310.495 102.35C309.545 100.717 309.07 98.8667 309.07 96.8C309.07 94.7333 309.545 92.875 310.495 91.225C311.445 89.575 312.753 88.275 314.42 87.325C316.103 86.3583 318.02 85.875 320.17 85.875C322.32 85.875 324.22 86.3583 325.87 87.325C327.52 88.275 328.812 89.575 329.745 91.225C330.695 92.875 331.17 94.7333 331.17 96.8C331.17 98.8667 330.695 100.717 329.745 102.35C328.812 103.967 327.52 105.25 325.87 106.2C324.22 107.133 322.32 107.6 320.17 107.6ZM320.17 103.1C321.37 103.1 322.412 102.825 323.295 102.275C324.178 101.725 324.862 100.975 325.345 100.025C325.828 99.075 326.07 97.9917 326.07 96.775C326.07 95.5583 325.828 94.475 325.345 93.525C324.862 92.5583 324.178 91.7917 323.295 91.225C322.412 90.6583 321.37 90.375 320.17 90.375C318.97 90.375 317.92 90.6583 317.02 91.225C316.137 91.7917 315.445 92.5583 314.945 93.525C314.462 94.475 314.22 95.5583 314.22 96.775C314.22 97.9917 314.462 99.075 314.945 100.025C315.445 100.975 316.137 101.725 317.02 102.275C317.92 102.825 318.97 103.1 320.17 103.1ZM345.463 107.6C343.313 107.6 341.396 107.133 339.713 106.2C338.046 105.25 336.738 103.967 335.788 102.35C334.838 100.717 334.363 98.8667 334.363 96.8C334.363 94.7333 334.838 92.875 335.788 91.225C336.738 89.575 338.046 88.275 339.713 87.325C341.396 86.3583 343.313 85.875 345.463 85.875C347.613 85.875 349.513 86.3583 351.163 87.325C352.813 88.275 354.105 89.575 355.038 91.225C355.988 92.875 356.463 94.7333 356.463 96.8C356.463 98.8667 355.988 100.717 355.038 102.35C354.105 103.967 352.813 105.25 351.163 106.2C349.513 107.133 347.613 107.6 345.463 107.6ZM345.463 103.1C346.663 103.1 347.705 102.825 348.588 102.275C349.471 101.725 350.155 100.975 350.638 100.025C351.121 99.075 351.363 97.9917 351.363 96.775C351.363 95.5583 351.121 94.475 350.638 93.525C350.155 92.5583 349.471 91.7917 348.588 91.225C347.705 90.6583 346.663 90.375 345.463 90.375C344.263 90.375 343.213 90.6583 342.313 91.225C341.43 91.7917 340.738 92.5583 340.238 93.525C339.755 94.475 339.513 95.5583 339.513 96.775C339.513 97.9917 339.755 99.075 340.238 100.025C340.738 100.975 341.43 101.725 342.313 102.275C343.213 102.825 344.263 103.1 345.463 103.1ZM358.961 86.475H362.911V80.775C362.911 78.725 363.294 77.0583 364.061 75.775C364.827 74.475 365.802 73.525 366.986 72.925C368.186 72.3083 369.419 72 370.686 72C372.236 72 373.419 72.2167 374.236 72.65C375.069 73.0667 375.577 73.3583 375.761 73.525L373.661 77.525C373.561 77.425 373.311 77.25 372.911 77C372.511 76.7333 371.969 76.6 371.286 76.6C370.786 76.6 370.302 76.7167 369.836 76.95C369.386 77.1833 369.002 77.6417 368.686 78.325C368.369 79.0083 368.211 80.0083 368.211 81.325V86.475H373.836V90.975H368.211V107H362.911V90.975H358.961V86.475Z" fill="white"/>
<path fill-rule="evenodd" clip-rule="evenodd" d="M222.383 69.0934H239.788L247.262 46.4869L230.082 47.9709L222.383 69.0934ZM255.266 32.586L253.561 27.4295L251.733 32.9583L234.907 34.7316L244.098 9.51328H263.193L284.824 69.0934H267.334L259.511 45.4289L259.577 45.4232L255.293 32.5832L255.266 32.586ZM68.2186 52.3591L68.1649 52.2811L58.2791 69.0987H39.4371L58.7861 38.5903L38.7611 9.51858H58.2791L69.5167 25.9137L79.149 9.51858H97.9911L78.8956 39.5199L86.375 50.3844L68.2571 52.2938L68.2186 52.3591ZM74.451 61.4138L79.7404 69.0987H99.2585L92.8725 59.8226L74.451 61.4138ZM104.637 58.8064L100.886 69.0987H118.291L122.195 57.2898L104.637 58.8064ZM137.857 44.9591L132.064 27.4349L125.853 46.2241L108.558 48.0467L122.6 9.51858H141.696L153.947 43.2635L137.857 44.9591ZM141.385 55.6322L145.836 69.0987H163.326L157.919 54.2041L141.385 55.6322ZM166.189 53.4897V69.0987H182.75V52.0592L166.189 53.4897ZM182.762 52.0549L202.944 50.3382V69.0987H219.504V9.51858H202.944V38.0663L182.75 40.1644V9.51858H166.189V41.9733L182.762 40.2269V52.0549ZM299.693 27.9399V9.51858H283.217V29.663L299.693 27.9399ZM299.693 42.0055V44.0835C299.693 47.2949 300.425 49.7739 301.89 51.5204C303.41 53.267 305.692 54.1403 308.734 54.1403C311.775 54.1403 314.057 53.267 315.578 51.5204C317.155 49.7175 317.943 47.2385 317.943 44.0835V40.4506L334.504 39.0397V44.0835C334.504 49.5485 333.349 54.2248 331.04 58.1123C328.731 61.9435 325.576 64.845 321.576 66.8169C317.633 68.7325 313.24 69.6903 308.395 69.6903C303.551 69.6903 299.214 68.7325 295.384 66.8169C291.61 64.845 288.624 61.9435 286.427 58.1123C284.287 54.2811 283.217 49.6048 283.217 44.0835V43.4092L299.693 42.0055ZM334.504 24.2994L317.943 26.0313V9.51858H334.504V24.2994Z" fill="white"/>
<path d="M369.974 26.8105C371.189 27.3656 371.33 28.9902 370.227 29.7348L353.113 41.2919C352.01 42.0365 350.491 41.3428 350.378 40.0431L348.628 19.8719C348.515 18.5722 349.894 17.6414 351.11 18.1964L369.974 26.8105Z" fill="white"/>
</svg>
