<svg width="127" height="76" viewBox="0 0 127 76" fill="none" xmlns="http://www.w3.org/2000/svg">
<g filter="url(#filter0_d_2_8)">
<path d="M22.9505 14.98H42.761V21.137H29.9535V27.4585H42.6435V33.4275H29.9535V39.843H42.761V46H22.9505V14.98ZM60.0889 46H52.1459L41.1009 14.98H49.0204L56.1174 37.0465L63.2144 14.98H71.1339L60.0889 46ZM102.474 14.98V46H95.4708V27.7405L95.7763 22.547L94.5778 28.4925L89.3608 43.509H82.4753L77.2818 28.4925L76.1068 22.547L76.4123 27.7405V46H69.3858V14.98H79.2558L85.5068 35.6835L85.9298 38.151L86.3528 35.6835L92.6038 14.98H102.474Z" fill="white"/>
</g>
<g filter="url(#filter1_d_2_8)">
<path d="M38.145 50.455C38.265 50.455 38.365 50.495 38.445 50.575C38.535 50.645 38.58 50.735 38.58 50.845C38.58 50.945 38.545 51.04 38.475 51.13L35.025 55.825L34.53 55.09L37.785 50.65C37.885 50.52 38.005 50.455 38.145 50.455ZM30.975 50.455C31.135 50.455 31.26 50.515 31.35 50.635L38.475 60.325C38.545 60.415 38.58 60.505 38.58 60.595C38.58 60.735 38.53 60.845 38.43 60.925C38.33 61.005 38.225 61.045 38.115 61.045C37.955 61.045 37.835 60.985 37.755 60.865L30.615 51.175C30.545 51.095 30.51 51.005 30.51 50.905C30.51 50.775 30.555 50.67 30.645 50.59C30.745 50.5 30.855 50.455 30.975 50.455ZM30.93 61.045C30.8 61.045 30.7 61.005 30.63 60.925C30.56 60.835 30.525 60.745 30.525 60.655C30.525 60.565 30.56 60.465 30.63 60.355L34.08 55.66L34.56 56.41L31.29 60.85C31.2 60.98 31.08 61.045 30.93 61.045ZM50.682 61.15C49.922 61.16 49.262 61.04 48.702 60.79C48.142 60.54 47.607 60.165 47.097 59.665C47.047 59.625 47.002 59.575 46.962 59.515C46.932 59.455 46.917 59.385 46.917 59.305C46.917 59.185 46.962 59.075 47.052 58.975C47.152 58.875 47.262 58.825 47.382 58.825C47.502 58.825 47.612 58.875 47.712 58.975C48.102 59.395 48.542 59.715 49.032 59.935C49.532 60.155 50.067 60.265 50.637 60.265C51.117 60.265 51.542 60.19 51.912 60.04C52.292 59.89 52.592 59.675 52.812 59.395C53.032 59.115 53.142 58.79 53.142 58.42C53.142 57.96 53.017 57.59 52.767 57.31C52.517 57.02 52.187 56.785 51.777 56.605C51.367 56.415 50.912 56.245 50.412 56.095C50.002 55.975 49.612 55.84 49.242 55.69C48.872 55.53 48.542 55.34 48.252 55.12C47.962 54.89 47.737 54.61 47.577 54.28C47.417 53.95 47.337 53.55 47.337 53.08C47.337 52.55 47.477 52.08 47.757 51.67C48.037 51.26 48.432 50.94 48.942 50.71C49.462 50.47 50.062 50.35 50.742 50.35C51.332 50.35 51.897 50.45 52.437 50.65C52.987 50.85 53.422 51.145 53.742 51.535C53.892 51.695 53.967 51.84 53.967 51.97C53.967 52.07 53.917 52.17 53.817 52.27C53.717 52.37 53.607 52.42 53.487 52.42C53.387 52.42 53.302 52.385 53.232 52.315C53.062 52.105 52.847 51.92 52.587 51.76C52.327 51.59 52.037 51.46 51.717 51.37C51.407 51.28 51.082 51.235 50.742 51.235C50.272 51.235 49.847 51.31 49.467 51.46C49.097 51.6 48.802 51.805 48.582 52.075C48.372 52.345 48.267 52.67 48.267 53.05C48.267 53.47 48.387 53.815 48.627 54.085C48.867 54.355 49.182 54.58 49.572 54.76C49.962 54.93 50.377 55.09 50.817 55.24C51.247 55.36 51.657 55.5 52.047 55.66C52.447 55.81 52.797 56 53.097 56.23C53.407 56.46 53.647 56.75 53.817 57.1C53.997 57.45 54.087 57.89 54.087 58.42C54.087 58.93 53.942 59.39 53.652 59.8C53.362 60.21 52.962 60.535 52.452 60.775C51.952 61.015 51.362 61.14 50.682 61.15ZM64.3548 60.55C64.3548 60.67 64.3098 60.775 64.2198 60.865C64.1298 60.955 64.0248 61 63.9048 61C63.7748 61 63.6648 60.955 63.5748 60.865C63.4948 60.775 63.4548 60.67 63.4548 60.55V53.65C63.4548 53.53 63.4948 53.425 63.5748 53.335C63.6648 53.245 63.7748 53.2 63.9048 53.2C64.0348 53.2 64.1398 53.245 64.2198 53.335C64.3098 53.425 64.3548 53.53 64.3548 53.65V60.55ZM63.9048 52.195C63.6948 52.195 63.5348 52.15 63.4248 52.06C63.3248 51.96 63.2748 51.82 63.2748 51.64V51.49C63.2748 51.31 63.3298 51.175 63.4398 51.085C63.5598 50.985 63.7198 50.935 63.9198 50.935C64.1098 50.935 64.2548 50.985 64.3548 51.085C64.4648 51.175 64.5198 51.31 64.5198 51.49V51.64C64.5198 51.82 64.4648 51.96 64.3548 52.06C64.2548 52.15 64.1048 52.195 63.9048 52.195ZM77.3878 53.155C77.8378 53.155 78.2528 53.235 78.6328 53.395C79.0128 53.545 79.3428 53.745 79.6228 53.995C79.9128 54.235 80.1378 54.495 80.2978 54.775C80.4578 55.045 80.5378 55.305 80.5378 55.555L80.2828 55.195V53.8C80.2828 53.67 80.3228 53.56 80.4028 53.47C80.4928 53.38 80.6028 53.335 80.7328 53.335C80.8728 53.335 80.9828 53.38 81.0628 53.47C81.1428 53.56 81.1828 53.67 81.1828 53.8V60.295C81.1828 61.095 81.0178 61.77 80.6878 62.32C80.3578 62.87 79.9078 63.285 79.3378 63.565C78.7778 63.855 78.1378 64 77.4178 64C77.0678 64 76.6978 63.955 76.3078 63.865C75.9278 63.775 75.5978 63.66 75.3178 63.52C75.0478 63.38 74.8978 63.235 74.8678 63.085C74.7878 62.995 74.7478 62.905 74.7478 62.815C74.7578 62.735 74.8028 62.665 74.8828 62.605C74.9828 62.535 75.0878 62.525 75.1978 62.575C75.3078 62.635 75.4728 62.71 75.6928 62.8C75.7928 62.83 75.9278 62.875 76.0978 62.935C76.2678 62.995 76.4678 63.045 76.6978 63.085C76.9378 63.135 77.1878 63.16 77.4478 63.16C78.3478 63.16 79.0428 62.9 79.5328 62.38C80.0328 61.87 80.2828 61.195 80.2828 60.355V58.915L80.4478 58.96C80.3578 59.32 80.2078 59.635 79.9978 59.905C79.7978 60.175 79.5578 60.405 79.2778 60.595C78.9978 60.775 78.6928 60.91 78.3628 61C78.0428 61.1 77.7228 61.15 77.4028 61.15C76.7128 61.15 76.0928 60.975 75.5428 60.625C74.9928 60.275 74.5528 59.8 74.2228 59.2C73.9028 58.6 73.7428 57.915 73.7428 57.145C73.7428 56.385 73.9028 55.705 74.2228 55.105C74.5528 54.495 74.9878 54.02 75.5278 53.68C76.0778 53.33 76.6978 53.155 77.3878 53.155ZM77.4928 53.995C76.9428 53.995 76.4478 54.135 76.0078 54.415C75.5778 54.685 75.2378 55.06 74.9878 55.54C74.7478 56.01 74.6278 56.545 74.6278 57.145C74.6278 57.745 74.7478 58.285 74.9878 58.765C75.2378 59.245 75.5778 59.625 76.0078 59.905C76.4478 60.175 76.9428 60.31 77.4928 60.31C78.0428 60.31 78.5328 60.175 78.9628 59.905C79.3928 59.635 79.7328 59.265 79.9828 58.795C80.2328 58.315 80.3578 57.765 80.3578 57.145C80.3578 56.525 80.2328 55.98 79.9828 55.51C79.7328 55.03 79.3928 54.66 78.9628 54.4C78.5328 54.13 78.0428 53.995 77.4928 53.995ZM94.6682 53.155C95.3282 53.155 95.8532 53.29 96.2432 53.56C96.6432 53.82 96.9282 54.18 97.0982 54.64C97.2782 55.09 97.3682 55.59 97.3682 56.14V60.55C97.3682 60.67 97.3232 60.775 97.2332 60.865C97.1432 60.955 97.0382 61 96.9182 61C96.7782 61 96.6682 60.955 96.5882 60.865C96.5082 60.775 96.4682 60.67 96.4682 60.55V56.185C96.4682 55.785 96.4032 55.42 96.2732 55.09C96.1432 54.76 95.9282 54.495 95.6282 54.295C95.3382 54.095 94.9532 53.995 94.4732 53.995C94.0432 53.995 93.6332 54.095 93.2432 54.295C92.8632 54.495 92.5532 54.76 92.3132 55.09C92.0732 55.42 91.9532 55.785 91.9532 56.185V60.55C91.9532 60.67 91.9082 60.775 91.8182 60.865C91.7282 60.955 91.6232 61 91.5032 61C91.3632 61 91.2532 60.955 91.1732 60.865C91.0932 60.775 91.0532 60.67 91.0532 60.55V53.83C91.0532 53.71 91.0932 53.605 91.1732 53.515C91.2632 53.425 91.3732 53.38 91.5032 53.38C91.6332 53.38 91.7382 53.425 91.8182 53.515C91.9082 53.605 91.9532 53.71 91.9532 53.83V55.09L91.6082 55.63C91.6282 55.31 91.7282 55.005 91.9082 54.715C92.0982 54.415 92.3382 54.15 92.6282 53.92C92.9182 53.68 93.2382 53.495 93.5882 53.365C93.9482 53.225 94.3082 53.155 94.6682 53.155Z" fill="white"/>
</g>
<defs>
<filter id="filter0_d_2_8" x="18.9505" y="14.98" width="87.5233" height="39.02" filterUnits="userSpaceOnUse" color-interpolation-filters="sRGB">
<feFlood flood-opacity="0" result="BackgroundImageFix"/>
<feColorMatrix in="SourceAlpha" type="matrix" values="0 0 0 0 0 0 0 0 0 0 0 0 0 0 0 0 0 0 127 0" result="hardAlpha"/>
<feOffset dy="4"/>
<feGaussianBlur stdDeviation="2"/>
<feComposite in2="hardAlpha" operator="out"/>
<feColorMatrix type="matrix" values="0 0 0 0 0 0 0 0 0 0 0 0 0 0 0 0 0 0 0.1 0"/>
<feBlend mode="normal" in2="BackgroundImageFix" result="effect1_dropShadow_2_8"/>
<feBlend mode="normal" in="SourceGraphic" in2="effect1_dropShadow_2_8" result="shape"/>
</filter>
<filter id="filter1_d_2_8" x="26.51" y="50.35" width="74.8582" height="21.65" filterUnits="userSpaceOnUse" color-interpolation-filters="sRGB">
<feFlood flood-opacity="0" result="BackgroundImageFix"/>
<feColorMatrix in="SourceAlpha" type="matrix" values="0 0 0 0 0 0 0 0 0 0 0 0 0 0 0 0 0 0 127 0" result="hardAlpha"/>
<feOffset dy="4"/>
<feGaussianBlur stdDeviation="2"/>
<feComposite in2="hardAlpha" operator="out"/>
<feColorMatrix type="matrix" values="0 0 0 0 0 0 0 0 0 0 0 0 0 0 0 0 0 0 0.1 0"/>
<feBlend mode="normal" in2="BackgroundImageFix" result="effect1_dropShadow_2_8"/>
<feBlend mode="normal" in="SourceGraphic" in2="effect1_dropShadow_2_8" result="shape"/>
</filter>
</defs>
</svg>
