<svg width="202" height="89" viewBox="0 0 202 89" fill="none" xmlns="http://www.w3.org/2000/svg">
<path fill-rule="evenodd" clip-rule="evenodd" d="M80.9027 63.8068L62.978 45.948L80.9027 28.0898C84.7782 24.2628 86.716 21.0205 86.716 18.363C86.716 15.5993 84.7782 12.3038 80.9027 8.47701C77.027 4.65025 73.7435 2.73676 71.0523 2.73676C68.3608 2.73676 65.0773 4.65025 61.2018 8.47701L43.4388 26.3355L25.5143 8.47701C21.6388 4.65025 18.3552 2.73676 15.6637 2.73676C13.08 2.73676 9.7965 4.65025 5.81325 8.47701C1.93775 12.3038 0 15.5993 0 18.363C0 21.0205 1.93775 24.2628 5.81325 28.0898L23.738 45.948L5.81325 63.8068C1.93775 67.6335 0 70.9288 0 73.6928C0 76.3503 1.93775 79.5925 5.81325 83.4193C9.7965 87.1398 13.08 89 15.6637 89C18.3552 89 21.6388 87.0868 25.5143 83.26L43.4388 65.5608L61.2018 83.26C65.0773 87.0868 68.3608 89 71.0523 89C73.7435 89 77.027 87.1398 80.9027 83.4193C84.7782 79.5925 86.716 76.3503 86.716 73.6928C86.716 70.9288 84.7782 67.6335 80.9027 63.8068Z" fill="black"/>
<path d="M196.328 3.96425C202.643 9.63 203.113 19.2783 197.374 25.5143L145.055 82.3763C142.17 85.5128 138.093 87.3223 133.803 87.3723C129.511 87.422 125.392 85.7073 122.433 82.639L94.3415 53.5143C88.4567 47.4133 88.6953 37.7568 94.8743 31.946C101.053 26.1353 110.833 26.3708 116.717 32.472L133.353 49.7208L174.505 4.99726C180.241 -1.23899 190.013 -1.70125 196.328 3.96425Z" fill="#0030CF"/>
</svg>
